@startuml 演習6-3
    [*]-right->メニュー: 接続する
    メニュー--down->予約と確認: 予約と確認ボタン\nを押す
    メニュー<-up--予約と確認: 取り消しボタン\nを押す
    メニュー<-up--あなたの順番: メニューボタン\nを押す
    予約と確認--right->あなたの順番: 登録ボタンを押す
    予約と確認--right->あなたの順番:　確認ボタンを押す
    メニュー<-up--今の順番: メニューボタン\nを押す
    メニュー--down->今の順番: 今の順番ボタンを\n押す
    メニュー-right->[*]:切断する
@enduml